<svg width="25" height="24" viewBox="0 0 25 24" fill="none" xmlns="http://www.w3.org/2000/svg">
<path d="M11.375 6.75V15C11.375 16.1935 10.9009 17.3381 10.057 18.182C9.21307 19.0259 8.06847 19.5 6.875 19.5C6.67609 19.5 6.48532 19.421 6.34467 19.2803C6.20402 19.1397 6.125 18.9489 6.125 18.75C6.125 18.5511 6.20402 18.3603 6.34467 18.2197C6.48532 18.079 6.67609 18 6.875 18C7.66989 17.9975 8.43151 17.6807 8.99359 17.1186C9.55566 16.5565 9.87253 15.7949 9.875 15V14.25H4.25C3.85218 14.25 3.47064 14.092 3.18934 13.8107C2.90804 13.5294 2.75 13.1478 2.75 12.75V6.75C2.75 6.35218 2.90804 5.97064 3.18934 5.68934C3.47064 5.40804 3.85218 5.25 4.25 5.25H9.875C10.2728 5.25 10.6544 5.40804 10.9357 5.68934C11.217 5.97064 11.375 6.35218 11.375 6.75ZM20.75 5.25H15.125C14.7272 5.25 14.3456 5.40804 14.0643 5.68934C13.783 5.97064 13.625 6.35218 13.625 6.75V12.75C13.625 13.1478 13.783 13.5294 14.0643 13.8107C14.3456 14.092 14.7272 14.25 15.125 14.25H20.75V15C20.7475 15.7949 20.4307 16.5565 19.8686 17.1186C19.3065 17.6807 18.5449 17.9975 17.75 18C17.5511 18 17.3603 18.079 17.2197 18.2197C17.079 18.3603 17 18.5511 17 18.75C17 18.9489 17.079 19.1397 17.2197 19.2803C17.3603 19.421 17.5511 19.5 17.75 19.5C18.9435 19.5 20.0881 19.0259 20.932 18.182C21.7759 17.3381 22.25 16.1935 22.25 15V6.75C22.25 6.35218 22.092 5.97064 21.8107 5.68934C21.5294 5.40804 21.1478 5.25 20.75 5.25Z" fill="#080318"/>
</svg>
