<svg width="21" height="15" viewBox="0 0 21 15" fill="none" xmlns="http://www.w3.org/2000/svg">
<path d="M11.625 13.25V5C11.625 3.80653 12.0991 2.66193 12.943 1.81802C13.7869 0.974105 14.9315 0.5 16.125 0.5C16.3239 0.5 16.5147 0.579017 16.6553 0.719669C16.796 0.860322 16.875 1.05109 16.875 1.25C16.875 1.44891 16.796 1.63968 16.6553 1.78033C16.5147 1.92098 16.3239 2 16.125 2C15.3301 2.00247 14.5685 2.31934 14.0064 2.88141C13.4443 3.44349 13.1275 4.20511 13.125 5V5.75H18.75C19.1478 5.75 19.5294 5.90804 19.8107 6.18934C20.092 6.47064 20.25 6.85218 20.25 7.25V13.25C20.25 13.6478 20.092 14.0294 19.8107 14.3107C19.5294 14.592 19.1478 14.75 18.75 14.75H13.125C12.7272 14.75 12.3456 14.592 12.0643 14.3107C11.783 14.0294 11.625 13.6478 11.625 13.25ZM2.25 14.75H7.875C8.27282 14.75 8.65436 14.592 8.93566 14.3107C9.21696 14.0294 9.375 13.6478 9.375 13.25V7.25C9.375 6.85218 9.21696 6.47064 8.93566 6.18934C8.65436 5.90804 8.27282 5.75 7.875 5.75H2.25V5C2.25247 4.20511 2.56934 3.44349 3.13141 2.88141C3.69349 2.31934 4.45511 2.00247 5.25 2C5.44891 2 5.63968 1.92098 5.78033 1.78033C5.92098 1.63968 6 1.44891 6 1.25C6 1.05109 5.92098 0.860322 5.78033 0.719669C5.63968 0.579017 5.44891 0.5 5.25 0.5C4.05653 0.5 2.91193 0.974105 2.06802 1.81802C1.22411 2.66193 0.75 3.80653 0.75 5V13.25C0.75 13.6478 0.908035 14.0294 1.18934 14.3107C1.47064 14.592 1.85217 14.75 2.25 14.75Z" fill="#080318"/>
</svg>
